<?xml version="1.0" encoding="utf-8"?>
<!-- Generator: Adobe Illustrator 22.1.0, SVG Export Plug-In . SVG Version: 6.00 Build 0)  -->
<svg version="1.1" id="Layer_1" xmlns="http://www.w3.org/2000/svg" xmlns:xlink="http://www.w3.org/1999/xlink" x="0px" y="0px"
	 viewBox="0 0 70 69.458" style="enable-background:new 0 0 70 69.458;" xml:space="preserve">
<style type="text/css">
	.st0{fill:#ffffff;}
	.st1{fill:url(#SVGID_1_);}
	.st2{fill:#ffffff;}
</style>

<linearGradient id="SVGID_1_" gradientUnits="userSpaceOnUse" x1="1.5989" y1="32.8085" x2="69.458" y2="32.8085">
	<stop  offset="0" style="stop-color:#ffffff"/>
	<stop  offset="0.2" style="stop-color:#ffffff"/>
	<stop  offset="0.43" style="stop-color:#ffffff"/>
	<stop  offset="0.74" style="stop-color:#ffffff"/>
	<stop  offset="1" style="stop-color:#ffffff"/>
</linearGradient>
<path class="st1" d="M14.8,63.2h41.5c7.2,0,13.2-6,13.2-13.4c0-7.3-5.9-13.4-13.2-13.4h-16l13.9,13.8L49,55.4L35.6,42L22,55.5
	l-5.1-5.2l14-13.8H14.8c-7.3,0-13.2,6.1-13.2,13.4C1.6,57.2,7.5,63.3,14.8,63.2L14.8,63.2z M56.3,2.4H14.8c-7.3,0-13.2,6-13.2,13.4
	c0,7.4,5.9,13.4,13.2,13.4h17.1V11.4h7.4v17.8h17.1c7.2,0,13.2-6,13.2-13.4C69.5,8.4,63.5,2.3,56.3,2.4z"/>
<path class="st2" d="M56.3,60.9L56.3,60.9H15h-0.1c-6,0-11-5-11-11c0-6.1,4.9-11.1,10.9-11.1h10.3L13.5,50.3l8.5,8.5l13.6-13.4
	L49,58.8l8.5-8.5L45.9,38.8h10.3c6,0,10.9,5,10.9,11.1C67.1,56,62.3,60.9,56.3,60.9L56.3,60.9z"/>
<path class="st2" d="M56.1,26.8H41.6V9H29.5v17.8H14.9c-6,0-10.9-4.9-10.9-11C4,9.7,8.8,4.7,14.8,4.7h0.1h41.2h0.1
	c6,0,10.9,5,10.9,11.1C67.1,21.9,62.2,26.8,56.1,26.8L56.1,26.8z"/>
</svg>
