<?xml version="1.0" encoding="UTF-8"?>
<svg width="38px" height="36px" viewBox="0 0 38 36" version="1.1" xmlns="http://www.w3.org/2000/svg" xmlns:xlink="http://www.w3.org/1999/xlink">
    <!-- Generator: sketchtool 52.1 (67048) - http://www.bohemiancoding.com/sketch -->
    <title>CD8EDBFE-0A14-41C7-AF35-9853CAB72D6B</title>
    <desc>Created with sketchtool.</desc>
    <g id="Design" stroke="none" stroke-width="1" fill="none" fill-rule="evenodd">
        <g id="05_2_desktop_product_landing" transform="translate(-798.000000, -2559.000000)">
            <g id="Group-2" transform="translate(711.000000, 2532.000000)">
                <g id="icon_computer" transform="translate(87.000000, 27.000000)">
                    <path d="M14.6428571,27.5 L14.6428571,32.9285714 L22.6428571,32.9285714 L22.6428571,27.5 L14.6428571,27.5 Z" id="Rectangle" stroke="#767C87"></path>
                    <path d="M9,0.5 C4.30557963,0.5 0.5,4.30557963 0.5,9 L0.5,18.6428571 C0.5,23.3372775 4.30557963,27.1428571 9,27.1428571 L28.9285714,27.1428571 C33.6229918,27.1428571 37.4285714,23.3372775 37.4285714,18.6428571 L37.4285714,9 C37.4285714,4.30557963 33.6229918,0.5 28.9285714,0.5 L9,0.5 Z" id="Rectangle-27" stroke="#767C87"></path>
                    <path d="M9.57142857,3.07142857 C5.9815777,3.07142857 3.07142857,5.9815777 3.07142857,9.57142857 L3.07142857,18.0714286 C3.07142857,21.6612794 5.9815777,24.5714286 9.57142857,24.5714286 L28.3571429,24.5714286 C31.9469937,24.5714286 34.8571429,21.6612794 34.8571429,18.0714286 L34.8571429,9.57142857 C34.8571429,5.9815777 31.9469937,3.07142857 28.3571429,3.07142857 L9.57142857,3.07142857 Z" id="Rectangle-27" stroke="#767C87"></path>
                    <rect id="Rectangle-27-Copy" stroke="#767C87" fill="#B71651" x="9.5" y="32.6428571" width="18.2857143" height="2.85714286" rx="1.42857143"></rect>
                    <path d="M6.92857143,10.7857143 L6.92857143,15.5714286 L31.6428571,15.5714286 L31.6428571,10.7857143 L6.92857143,10.7857143 Z" id="Rectangle-4" stroke="#767C87"></path>
                    <path d="M27.8839286,16.9151786 L27.8839286,20.5714286 L26.7589286,20.5714286 L26.7589286,16.9151786 L25.0714286,16.9151786 L27.3214286,12.2142857 L29.5714286,16.9151786 L27.8839286,16.9151786 Z" id="Combined-Shape" fill="#B71651" transform="translate(27.321429, 16.392857) rotate(-45.000000) translate(-27.321429, -16.392857) "></path>
                </g>
            </g>
        </g>
    </g>
</svg>