<?xml version="1.0" encoding="UTF-8"?>
<svg width="66px" height="66px" viewBox="0 0 66 66" version="1.1" xmlns="http://www.w3.org/2000/svg" xmlns:xlink="http://www.w3.org/1999/xlink">
    <!-- Generator: Sketch 50.2 (55047) - http://www.bohemiancoding.com/sketch -->
    <title>icon_verify</title>
    <desc>Created with Sketch.</desc>
    <defs></defs>
    <g id="styleguide" stroke="none" stroke-width="1" fill="none" fill-rule="evenodd">
        <g id="style_icons" transform="translate(-125.000000, -1001.000000)">
            <g id="icon_verify" transform="translate(126.000000, 1002.000000)">
                <path d="M57.6,17 C60.5823376,17 63,19.5192336 63,22.6268657 M63,40.3731343 C63,43.4807664 60.5823376,46 57.6,46 M41.4,46 C38.4176624,46 36,43.4807664 36,40.3731343 M36,22.6268657 C36,19.5192336 38.4176624,17 41.4,17" id="Rectangle" stroke="#E55792" stroke-width="3"></path>
                <g id="icon_id" transform="translate(40.000000, 23.000000)">
                    <rect id="Rectangle-2-Copy" stroke="#767C87" x="0.5" y="0.5" width="19" height="14" rx="5"></rect>
                    <path d="M14.3552193,8.66071429 L14.3744006,8.66071429 L14.3935819,8.66071429 C14.7448389,8.65247886 15.0289615,8.48281267 15.2387567,8.15835346 C15.700306,7.44351872 15.6235809,6.21808773 15.6151891,6.10114472 C15.5852184,5.2232486 15.2831014,4.80324201 15.0337568,4.60722247 C14.8479382,4.4606484 14.6309501,4.38158834 14.3887865,4.375 L14.3803947,4.375 L14.3684064,4.375 C14.2353364,4.375 13.9739915,4.40464752 13.7234362,4.6006506 C13.471682,4.7966372 13.1647816,5.21664379 13.1348109,6.10114472 C13.1264191,6.21808773 13.049694,7.44351872 13.5112433,8.15835346 C13.7198397,8.48281267 14.0039623,8.65247886 14.3552193,8.66071429 Z" id="Stroke-1-Copy" fill="#E55792"></path>
                    <path d="M13.3506382,7.5 C13.3441461,7.50464998 12.7387572,7.90764845 12.0035261,8.08589777 C11.2829023,8.32149687 11.2618029,9.03914413 11.2520648,9.34449297 C11.2520648,9.35842741 11.2520648,9.37082737 11.2504417,9.38324282 C11.2488187,9.4684925 11.2471957,9.88232542 11.3332161,10.0900401 C11.3494464,10.1303245 11.3786608,10.1644243 11.4176135,10.1876743 C11.4663043,10.2186741 12.6332604,10.9285714 14.5857615,10.9285714 C16.5382625,10.9285714 17.7052187,10.2171396 17.7539095,10.1876743 C17.7912391,10.1644243 17.8220766,10.1303245 17.8383068,10.0900401 C17.9194582,9.88389091 17.9178352,9.47004249 17.9162121,9.3894273 C17.9162121,9.37239286 17.9145891,9.35999291 17.9145891,9.34604296 C17.9048509,9.03914413 17.8837516,8.32149687 17.179358,8.09208224 C16.4311428,7.90918294 15.4521374,7.50618448 15.4456453,7.50154999" id="Stroke-3-Copy" fill="#E55792"></path>
                    <ellipse id="Oval-3-Copy-3" fill="#E55792" cx="3.95833333" cy="5.23214286" rx="1" ry="1"></ellipse>
                    <ellipse id="Oval-3-Copy-4" fill="#E55792" cx="6.45833333" cy="5.23214286" rx="1" ry="1"></ellipse>
                    <ellipse id="Oval-3-Copy-5" fill="#E55792" cx="8.95833333" cy="5.23214286" rx="1" ry="1"></ellipse>
                    <path d="M3.125,7.75 L9.79166667,7.75" id="Path-4-Copy-3" stroke="#767C87" stroke-linecap="round"></path>
                    <path d="M3.125,9.3125 L9.79166667,9.3125" id="Path-4-Copy-4" stroke="#767C87" stroke-linecap="round"></path>
                    <path d="M3.125,10.875 L9.79166667,10.875" id="Path-4-Copy-5" stroke="#767C87" stroke-linecap="round"></path>
                </g>
                <g id="Group" transform="translate(0.000000, 16.000000)">
                    <path d="M0,32 L0,26.6422049 C0.202828219,25.2957964 0.798965604,24.4151729 1.78841215,24.0003343 C2.77785871,23.5854956 4.30545208,22.8387176 6.37119229,21.76 L12.7032618,22.7986051 L19.1972331,21.76 L22.4007259,23.4572728 C24.0326467,24.2592484 24.88225,25.1718248 24.9495357,26.195002 C25.0168214,27.2181792 25.0168214,29.1531785 24.9495357,32 L0,32 Z" id="Path-3" fill="#87B3FF"></path>
                    <polyline id="Stroke-3" stroke="#697489" stroke-linecap="round" stroke-linejoin="round" points="16.9491525 17.92 16.9491525 19.9808042 12.7193701 22.6133333 8.05084746 19.9808042 8.05084746 17.92"></polyline>
                    <path d="M16.9491525,20.0533333 L16.9491525,17.4933333" id="Stroke-5" stroke="#697489" stroke-linecap="round" stroke-linejoin="round"></path>
                    <polygon id="Stroke-7" stroke="#697489" fill="#FFFFFF" stroke-linecap="round" stroke-linejoin="round" points="6.3559322 21.7908314 8.05033021 20.0533333 12.7118644 22.602526 9.70480954 25.6"></polygon>
                    <polygon id="Stroke-9" stroke="#697489" fill="#FFFFFF" stroke-linecap="round" stroke-linejoin="round" points="19.0677966 21.7983427 17.0827451 20.0533333 12.7118644 22.6084367 15.7187901 25.6"></polygon>
                    <path d="M12.7118644,22.6133333 L12.7118644,32" id="Stroke-11" stroke="#697489" stroke-linecap="round" stroke-linejoin="round"></path>
                    <path d="M6.3559322,21.76 C5.58200773,22.1501332 4.61705126,22.5373411 3.84367103,22.9277403 C2.80360796,23.452173 1.25684751,23.97501 0.575989898,24.9262755 C-0.228140493,26.0498699 0.0445291013,27.7694346 0.0445291013,29.0621665 L0.0445291013,32" id="Stroke-13" stroke="#697489" stroke-linecap="round" stroke-linejoin="round"></path>
                    <path d="M19.0677966,21.76 C19.8202887,22.1503318 20.5971007,22.4417184 21.3493282,22.8323162 C22.3605887,23.3570158 23.7780357,23.9709262 24.4400383,24.9226758 C25.2216352,26.046842 24.9567813,27.7672817 24.9567813,29.0606715 L24.9567813,32" id="Stroke-15" stroke="#697489" stroke-linecap="round" stroke-linejoin="round"></path>
                    <path d="M4.94191079,9.94490486 C4.94191079,9.94490486 3.81754992,6.64953631 4.40942946,4.53119709 C5.00130901,2.41259655 6.65815121,0.294257335 9.67668431,0.058799201 L19.855856,0 L19.9152542,7.00259284 C19.9152542,7.00259284 19.855856,9.59184832 19.2051039,10.2391622 C19.2051039,10.2391622 20.3883374,18.6539812 12.3990148,19.1836966 C12.3990148,19.1836966 5.41551956,20.0074081 4.94191079,9.94490486 Z" id="Stroke-1" stroke="#697489" stroke-linecap="round" stroke-linejoin="round"></path>
                    <path d="M7.7744166,6.82666667 C6.30136413,2.12073677 16.3167645,5.15492085 18.220339,6.13482149" id="Stroke-17" stroke="#697489" stroke-linecap="round" stroke-linejoin="round"></path>
                </g>
                <path d="M16,5.7037037 C16,2.55363513 18.6743524,0 21.9733333,0 L42.0266667,0 C45.3256476,0 48,2.55363513 48,5.7037037 L48,11" id="Rectangle-8" stroke="#767C87"></path>
                <polyline id="Rectangle-9" stroke="#767C87" transform="translate(48.242641, 7.242641) rotate(-135.000000) translate(-48.242641, -7.242641) " points="45.2426407 10.2426407 45.2426407 4.24264069 51.2426407 4.24264069"></polyline>
                <g id="Group-2" transform="translate(30.500000, 58.000000) scale(-1, -1) translate(-30.500000, -58.000000) translate(12.000000, 52.000000)" stroke="#767C87">
                    <path d="M0,6 C0,2.6862915 2.69670348,0 6.02325581,0 L26.244186,0 C29.5707384,0 32.2674419,2.6862915 32.2674419,6 L32.2674419,11.5714286" id="Rectangle-8-Copy"></path>
                    <polyline id="Rectangle-9-Copy" transform="translate(32.249577, 7.436166) rotate(-135.000000) translate(-32.249577, -7.436166) " points="29.0228331 10.6504522 29.0228331 4.22188078 35.4763215 4.22188078"></polyline>
                </g>
                <path d="M15.5,8 L15.5,11" id="Path-6" stroke="#767C87"></path>
                <path d="M49.5,53 L49.5,56" id="Path-6-Copy" stroke="#767C87"></path>
            </g>
        </g>
    </g>
</svg>