<?xml version="1.0" encoding="utf-8"?>
<!-- Generator: Adobe Illustrator 22.1.0, SVG Export Plug-In . SVG Version: 6.00 Build 0)  -->
<svg version="1.1" id="Layer_1" xmlns="http://www.w3.org/2000/svg" xmlns:xlink="http://www.w3.org/1999/xlink" x="0px" y="0px"
	 viewBox="0 0 100 100" style="enable-background:new 0 0 100 100;" xml:space="preserve">
<style type="text/css">
	.st0{fill:#76C5BF;stroke:#767C87;stroke-linecap:round;stroke-linejoin:round;}
	.st1{fill:none;stroke:#767C87;stroke-linecap:round;stroke-linejoin:round;}
	.st2{fill:none;}
</style>
<title>icon_inherit</title>
<desc>Created with Sketch.</desc>
<g id="styleguide">
	<g id="style_icons" transform="translate(-553.000000, -407.000000)">
		<g id="icon_inherit" transform="translate(536.000000, 386.000000)">
			<path id="Stroke-3" class="st0" d="M71.4,80.8c0.4,2.1-0.2,3.5-1.8,4.4h7.2c6.6-3.3,10.3-5.2,11.2-5.7s2.3-0.7,4.4-0.5
				c0,0,1.8-9.4-9-19.2c0,0-5.2-4-5.5-6.9c-0.4-2.9,7.9-10.3,7.9-10.3s-3.4,1-4.6,0.4s-4-1.3-5.8-0.8c-1.8,0.6-3.2,0.8-3.5,0.8h0.3
				c-0.3,0-1.7-0.2-3.5-0.8c-1.8-0.6-4.5,0.2-5.8,0.8s-4.6-0.4-4.6-0.4s8.2,7.4,7.9,10.3c-0.4,2.9-5.5,6.9-5.5,6.9
				c-10.8,9.8-9,20.2-9,20.2"/>
			<path id="Stroke-1" class="st1" d="M69.2,85.1h7.3l11.8-5.8c0,0,5.2-1.8,8.2,3L78.3,92.8l-32.4,7l-8.4,0.1v-7.6
				c0,0-0.4-2.3,3.1-4.6l5.8-5.2c0,0,2.3-2.1,7.7-2.1l17.5,0.2c0,0,0.7,4.3-3.3,4.4h-9.8"/>
			<path id="Stroke-5" class="st1" d="M67.5,49h9"/>
			<path id="Stroke-7" class="st1" d="M67.5,52h9"/>
			<path id="Stroke-9" class="st1" d="M71.5,52l-3,5"/>
			<path id="Stroke-11" class="st1" d="M72.5,52l3,5"/>
			<path id="frame-copy" class="st2" d="M19.5,20h100v100h-100V20z"/>
		</g>
	</g>
</g>
</svg>
