<?xml version="1.0" encoding="UTF-8"?>
<svg width="64px" height="47px" viewBox="0 0 64 47" version="1.1" xmlns="http://www.w3.org/2000/svg" xmlns:xlink="http://www.w3.org/1999/xlink">
    <!-- Generator: Sketch 50.2 (55047) - http://www.bohemiancoding.com/sketch -->
    <title>icon_atm</title>
    <desc>Created with Sketch.</desc>
    <defs></defs>
    <g id="styleguide" stroke="none" stroke-width="1" fill="none" fill-rule="evenodd">
        <g id="style_icons" transform="translate(-127.000000, -564.000000)" stroke="#767C87">
            <g id="icon_atm" transform="translate(128.000000, 565.000000)">
                <path d="M54.0913195,45 L7.90868046,45 C3.5590922,45 0,41.4854082 0,37.1902041 L0,7.80979592 C0,3.51459184 3.5590922,0 7.90868046,0 L54.0913195,0 C58.4409078,0 62,3.51459184 62,7.80979592 L62,37.1902041 C62,41.4854082 58.4409078,45 54.0913195,45 Z" id="Stroke-1"></path>
                <path d="M33.0696598,40 L10.9312659,40 C8.2189308,40 6,37.8016886 6,35.1154749 L6,10.8845251 C6,8.19831144 8.2189308,6 10.9312659,6 L33.0696598,6 C35.7810692,6 38,8.19831144 38,10.8845251 L38,35.1154749 C38,37.8016886 35.7810692,40 33.0696598,40 Z" id="Stroke-3"></path>
                <path d="M30.4488607,24 L12.5511393,24 C11.1480127,24 10,22.8781935 10,21.5070968 L10,12.4929032 C10,11.1218065 11.1480127,10 12.5511393,10 L30.4488607,10 C31.8519873,10 33,11.1218065 33,12.4929032 L33,21.5070968 C33,22.8781935 31.8519873,24 30.4488607,24 Z" id="Stroke-5" fill="#87B3FF"></path>
                <path d="M15.7867714,30 L12.2123226,30 C11.5454545,30 11,29.3421818 11,28.5392727 L11,28.4596364 C11,27.6567273 11.5454545,27 12.2123226,27 L15.7867714,27 C16.4536394,27 17,27.6567273 17,28.4596364 L17,28.5392727 C17,29.3421818 16.4536394,30 15.7867714,30 Z" id="Stroke-7"></path>
                <path d="M23.7867714,30 L20.2123226,30 C19.5454545,30 19,29.3421818 19,28.5392727 L19,28.4596364 C19,27.6567273 19.5454545,27 20.2123226,27 L23.7867714,27 C24.4536394,27 25,27.6567273 25,28.4596364 L25,28.5392727 C25,29.3421818 24.4536394,30 23.7867714,30 Z" id="Stroke-9"></path>
                <path d="M31.7867714,30 L28.2123226,30 C27.5454545,30 27,29.3421818 27,28.5392727 L27,28.4596364 C27,27.6567273 27.5454545,27 28.2123226,27 L31.7867714,27 C32.4536394,27 33,27.6567273 33,28.4596364 L33,28.5392727 C33,29.3421818 32.4536394,30 31.7867714,30 Z" id="Stroke-11"></path>
                <path d="M15.7867714,35 L12.2123226,35 C11.5454545,35 11,34.3421818 11,33.5392727 L11,33.4596364 C11,32.6567273 11.5454545,32 12.2123226,32 L15.7867714,32 C16.4536394,32 17,32.6567273 17,33.4596364 L17,33.5392727 C17,34.3421818 16.4536394,35 15.7867714,35 Z" id="Stroke-13"></path>
                <path d="M23.7867714,35 L20.2123226,35 C19.5454545,35 19,34.3421818 19,33.5392727 L19,33.4596364 C19,32.6567273 19.5454545,32 20.2123226,32 L23.7867714,32 C24.4536394,32 25,32.6567273 25,33.4596364 L25,33.5392727 C25,34.3421818 24.4536394,35 23.7867714,35 Z" id="Stroke-15"></path>
                <path d="M31.7867714,35 L28.2123226,35 C27.5454545,35 27,34.3421818 27,33.5392727 L27,33.4596364 C27,32.6567273 27.5454545,32 28.2123226,32 L31.7867714,32 C32.4536394,32 33,32.6567273 33,33.4596364 L33,33.5392727 C33,34.3421818 32.4536394,35 31.7867714,35 Z" id="Stroke-17"></path>
                <path d="M53.4185366,38 L44.5805528,38 C43.1609756,38 42,36.8666667 42,35.4808889 L42,31.5191111 C42,30.1333333 43.1609756,29 44.5805528,29 L53.4185366,29 C54.8381138,29 56,30.1333333 56,31.5191111 L56,35.4808889 C56,36.8666667 54.8381138,38 53.4185366,38 Z" id="Stroke-19"></path>
                <path d="M45,34 L53,34" id="Stroke-21" fill="#FFFFFF"></path>
            </g>
        </g>
    </g>
</svg>