<?xml version="1.0" encoding="UTF-8"?>
<svg width="30px" height="36px" viewBox="0 0 30 36" version="1.1" xmlns="http://www.w3.org/2000/svg" xmlns:xlink="http://www.w3.org/1999/xlink">
    <!-- Generator: sketchtool 52.1 (67048) - http://www.bohemiancoding.com/sketch -->
    <title>45C59233-F162-4BA6-9D17-18AB8DC65D1B</title>
    <desc>Created with sketchtool.</desc>
    <g id="Design" stroke="none" stroke-width="1" fill="none" fill-rule="evenodd">
        <g id="05_2_desktop_product_landing" transform="translate(-411.000000, -2559.000000)">
            <g id="Group-13" transform="translate(369.000000, 2532.000000)">
                <g id="icon_cheque" transform="translate(42.000000, 27.000000)">
                    <path d="M3.60483871,0.5 C2.22412684,0.5 1.10483871,1.61928813 1.10483871,3 L1.10483871,33 C1.10483871,34.3807119 2.22412684,35.5 3.60483871,35.5 L26.6370968,35.5 C28.0178086,35.5 29.1370968,34.3807119 29.1370968,33 L29.1370968,3 C29.1370968,1.61928813 28.0178086,0.5 26.6370968,0.5 L3.60483871,0.5 Z" id="Rectangle" stroke="#767C87"></path>
                    <path d="M4.23387097,21 L15.1209677,21" id="Path-14" stroke="#767C87"></path>
                    <path d="M8.58870968,4 L8.58870968,4 C10.9938207,4 12.9435484,5.9497277 12.9435484,8.35483871 L12.9435484,8.64516129 C12.9435484,11.0502723 10.9938207,13 8.58870968,13 L8.58870968,13 C6.18359867,13 4.23387097,11.0502723 4.23387097,8.64516129 L4.23387097,8.35483871 C4.23387097,5.9497277 6.18359867,4 8.58870968,4 Z" id="Rectangle-2" fill="#B71651"></path>
                    <path d="M5.44354839,25 L18.75,25" id="Path-14-Copy-2" stroke="#767C87"></path>
                    <path d="M4.23387097,29 L24.7983871,29" id="Path-14-Copy-3" stroke="#767C87"></path>
                </g>
            </g>
        </g>
    </g>
</svg>