<?xml version="1.0" encoding="utf-8"?>
<!-- Generator: Adobe Illustrator 22.1.0, SVG Export Plug-In . SVG Version: 6.00 Build 0)  -->
<svg version="1.1" id="Layer_1" xmlns="http://www.w3.org/2000/svg" xmlns:xlink="http://www.w3.org/1999/xlink" x="0px" y="0px"
	 viewBox="0 0 100 100" style="enable-background:new 0 0 100 100;" xml:space="preserve">
<style type="text/css">
	.st0{fill:#689AF3;}
	.st1{fill:none;stroke:#767C87;}
	.st2{fill:none;}
	.st3{fill:none;stroke:#767C87;stroke-linecap:round;}
</style>
<title>icon_loan</title>
<desc>Created with Sketch.</desc>
<g id="styleguide">
	<g id="style_icons" transform="translate(-690.000000, -412.000000)">
		<g id="icon_loan" transform="translate(670.000000, 386.000000)">
			<g id="icon_money-copy-3" transform="translate(51.000000, 44.000000)">
				<path id="Combined-Shape" class="st0" d="M35.1,41.5c0.9,0,1.7,0.8,1.7,1.9c0,1-0.8,1.9-1.7,1.9h-2.8c-0.4,0-0.8,0.4-0.8,0.8
					c0,0.4,0.4,0.8,0.8,0.8h2.8c1.8,0,3.2-1.6,3.2-3.4c0-1.9-1.4-3.4-3.2-3.4l0,0h-0.4c-0.9,0-1.7-0.8-1.7-1.9
					c0-1.1,0.8-1.8,1.7-1.8h2.8c0.4,0,0.8-0.4,0.8-0.8c0-0.4-0.4-0.8-0.8-0.8h-2.8c-1.8,0-3.2,1.6-3.2,3.4c0,1.8,1.4,3.4,3.2,3.4
					L35.1,41.5L35.1,41.5z M50,41c0,8.6-6.9,15.5-15.5,15.5S19,49.6,19,41s6.9-15.5,15.5-15.5S50,32.4,50,41z M35.9,33.3v-1
					c0-0.4-0.4-0.8-0.8-0.8c-0.4,0-0.8,0.4-0.8,0.8v1.1c0,0.4,0.4,0.8,0.8,0.8C35.5,34.1,35.9,33.8,35.9,33.3z M35.9,49.2v-1.1
					c0-0.4-0.4-0.8-0.8-0.8c-0.4,0-0.8,0.4-0.8,0.8v1.1c0,0.4,0.4,0.8,0.8,0.8C35.5,50,35.9,49.6,35.9,49.2z"/>
			</g>
			<g id="icon_id-copy" transform="translate(20.000000, 26.000000)">
				<path id="Rectangle-2_2_" class="st1" d="M79.5,45.8V33.5c0-4.1-3.4-7.5-7.5-7.5H27c-4.1,0-7.5,3.3-7.5,7.5v27
					c0,4.1,3.4,7.5,7.5,7.5h22.2"/>
				<ellipse id="Oval-3-Copy" class="st1" cx="61" cy="36" rx="3" ry="3.5"/>
				<ellipse id="Oval-3-Copy-2" class="st1" cx="69" cy="36" rx="3" ry="3.5"/>
			</g>
			<path id="frame-copy-2" class="st2" d="M19,25.5h100v100H19V25.5z"/>
			<path id="Rectangle-4" class="st3" d="M64.4,80.5H49.7c-1.5,0-2.7-1.1-2.7-2.5s1.2-2.5,2.7-2.5H66"/>
			<path id="Rectangle-5" class="st0" d="M49,57.5h4c2.2,0,4,1.8,4,4v1c0,2.2-1.8,4-4,4h-4c-2.2,0-4-1.8-4-4v-1
				C45,59.3,46.8,57.5,49,57.5z"/>
		</g>
	</g>
</g>
</svg>
