<?xml version="1.0" encoding="UTF-8"?>
<svg width="66px" height="57px" viewBox="0 0 66 57" version="1.1" xmlns="http://www.w3.org/2000/svg" xmlns:xlink="http://www.w3.org/1999/xlink">
    <!-- Generator: Sketch 50.2 (55047) - http://www.bohemiancoding.com/sketch -->
    <title>icon_sunglass</title>
    <desc>Created with Sketch.</desc>
    <defs></defs>
    <g id="icon_sunglass" stroke="none" stroke-width="1" fill="none" fill-rule="evenodd">
        <g transform="translate(2.000000, 1.000000)">
            <path d="M38.1647957,40.210635 C38.1647957,43.3946825 35.6228246,46 32.5161947,46 L29.5505617,46 C26.4439319,46 23.9019608,43.3946825 23.9019608,40.210635 L23.9019608,35 L38.2352941,35 L38.1647957,40.210635 Z" id="Stroke-24" stroke="#767C87" fill="#474F5D"></path>
            <path d="M55.0275408,40.210635 C55.0275408,43.3946825 52.4862411,46 49.3789398,46 L46.4133068,46 C43.306677,46 40.7647059,43.3946825 40.7647059,40.210635 L40.7647059,35 L55.0980392,35 L55.0275408,40.210635 Z" id="Stroke-26" stroke="#767C87" fill="#474F5D"></path>
            <path d="M38.2352941,34.8657436 C38.2352941,34.8657436 39.2024846,33.2639744 40.7647059,34.8657436" id="Stroke-28" stroke="#767C87" stroke-width="1.5"></path>
            <path d="M55.0980392,35 L58.4815783,25.0825608 C58.4815783,25.0825608 59.0151956,23.8067384 59.8970977,24.0251536 C60.7796993,24.2442623 61,25.5568339 61,26.7598513" id="Stroke-30" stroke="#767C87"></path>
            <path d="M23.9019608,35 L20.5184217,25.0825608 C20.5184217,25.0825608 19.9848044,23.8067384 19.1029023,24.0251536 C18.2203007,24.2442623 18,25.5568339 18,26.7598513" id="Stroke-32" stroke="#767C87"></path>
            <g id="icon_fail">
                <g id="Group-Copy" fill="#E55792">
                    <path d="M18.5823976,9.91539861 C18.5823976,14.7015923 14.702257,18.5823976 9.91606336,18.5823976 C5.12986968,18.5823976 1.24906432,14.7015923 1.24906432,9.91539861 C1.24906432,5.12920494 5.12986968,1.24906432 9.91606336,1.24906432 C14.702257,1.24906432 18.5823976,5.12920494 18.5823976,9.91539861 Z" id="Stroke-64" transform="translate(9.915731, 9.915731) rotate(-9.000000) translate(-9.915731, -9.915731) "></path>
                </g>
                <g id="Group-3" transform="translate(10.044108, 9.977104) rotate(-315.000000) translate(-10.044108, -9.977104) translate(4.710774, 5.310438)" stroke="#FFFFFF">
                    <path d="M9.44729905,4.42241147 L1.09501621,4.42241147" id="Path-20"></path>
                    <path d="M5.27115763,8.59855288 L5.27115763,0.24627005" id="Path-20"></path>
                </g>
            </g>
        </g>
        <path d="M0,0 L66,0 L66,57 L0,57 L0,0 Z" id="frame"></path>
    </g>
</svg>