<?xml version="1.0" encoding="UTF-8"?>
<svg width="30px" height="38px" viewBox="0 0 30 38" version="1.1" xmlns="http://www.w3.org/2000/svg" xmlns:xlink="http://www.w3.org/1999/xlink">
    <!-- Generator: sketchtool 52.1 (67048) - http://www.bohemiancoding.com/sketch -->
    <title>208E39C8-A236-4BF7-97A3-90D12F5D5C91</title>
    <desc>Created with sketchtool.</desc>
    <g id="Design" stroke="none" stroke-width="1" fill="none" fill-rule="evenodd">
        <g id="05_2_desktop_product_landing" transform="translate(-600.000000, -2557.000000)">
            <g id="Group-15" transform="translate(559.000000, 2532.000000)">
                <g id="icon_cheque-copy" transform="translate(41.000000, 25.000000)">
                    <path d="M3,0.5 C1.61928813,0.5 0.5,1.61928813 0.5,3 L0.5,35 C0.5,36.3807119 1.61928813,37.5 3,37.5 L27,37.5 C28.3807119,37.5 29.5,36.3807119 29.5,35 L29.5,3 C29.5,1.61928813 28.3807119,0.5 27,0.5 L3,0.5 Z" id="Rectangle" stroke="#767C87"></path>
                    <path d="M6.23188406,4.95652174 L23.7681159,4.95652174 C24.908704,4.95652174 25.8333333,5.88115106 25.8333333,7.02173913 L25.8333333,7.02173913 C25.8333333,8.1623272 24.908704,9.08695652 23.7681159,9.08695652 L6.23188406,9.08695652 C5.09129599,9.08695652 4.16666667,8.1623272 4.16666667,7.02173913 L4.16666667,7.02173913 C4.16666667,5.88115106 5.09129599,4.95652174 6.23188406,4.95652174 Z" id="Rectangle-2" fill="#B71651"></path>
                    <path d="M6,21.1521739 C5.72385763,21.1521739 5.5,21.3760315 5.5,21.6521739 L5.5,25.4347826 C5.5,25.710925 5.72385763,25.9347826 6,25.9347826 L9.83333333,25.9347826 C10.1094757,25.9347826 10.3333333,25.710925 10.3333333,25.4347826 L10.3333333,21.6521739 C10.3333333,21.3760315 10.1094757,21.1521739 9.83333333,21.1521739 L6,21.1521739 Z" id="Rectangle-5" stroke="#979797"></path>
                    <path d="M6,13.7173913 C5.72385763,13.7173913 5.5,13.9412489 5.5,14.2173913 L5.5,18 C5.5,18.2761424 5.72385763,18.5 6,18.5 L9.83333333,18.5 C10.1094757,18.5 10.3333333,18.2761424 10.3333333,18 L10.3333333,14.2173913 C10.3333333,13.9412489 10.1094757,13.7173913 9.83333333,13.7173913 L6,13.7173913 Z" id="Rectangle-5-Copy-3" stroke="#979797"></path>
                    <path d="M6,28.5869565 C5.72385763,28.5869565 5.5,28.8108141 5.5,29.0869565 L5.5,32.8695652 C5.5,33.1457076 5.72385763,33.3695652 6,33.3695652 L9.83333333,33.3695652 C10.1094757,33.3695652 10.3333333,33.1457076 10.3333333,32.8695652 L10.3333333,29.0869565 C10.3333333,28.8108141 10.1094757,28.5869565 9.83333333,28.5869565 L6,28.5869565 Z" id="Rectangle-5-Copy-6" stroke="#979797"></path>
                    <rect id="Rectangle-5-Copy" stroke="#979797" x="13" y="21.1521739" width="4.83333333" height="4.7826087" rx="1"></rect>
                    <path d="M13.5,13.7173913 C13.2238576,13.7173913 13,13.9412489 13,14.2173913 L13,18 C13,18.2761424 13.2238576,18.5 13.5,18.5 L17.3333333,18.5 C17.6094757,18.5 17.8333333,18.2761424 17.8333333,18 L17.8333333,14.2173913 C17.8333333,13.9412489 17.6094757,13.7173913 17.3333333,13.7173913 L13.5,13.7173913 Z" id="Rectangle-5-Copy-4" stroke="#979797"></path>
                    <rect id="Rectangle-5-Copy-7" stroke="#979797" x="13" y="28.5869565" width="4.83333333" height="4.7826087" rx="1"></rect>
                    <path d="M21,21.1521739 C20.7238576,21.1521739 20.5,21.3760315 20.5,21.6521739 L20.5,25.4347826 C20.5,25.710925 20.7238576,25.9347826 21,25.9347826 L24.8333333,25.9347826 C25.1094757,25.9347826 25.3333333,25.710925 25.3333333,25.4347826 L25.3333333,21.6521739 C25.3333333,21.3760315 25.1094757,21.1521739 24.8333333,21.1521739 L21,21.1521739 Z" id="Rectangle-5-Copy-2" stroke="#979797"></path>
                    <path d="M21,13.7173913 C20.7238576,13.7173913 20.5,13.9412489 20.5,14.2173913 L20.5,18 C20.5,18.2761424 20.7238576,18.5 21,18.5 L24.8333333,18.5 C25.1094757,18.5 25.3333333,18.2761424 25.3333333,18 L25.3333333,14.2173913 C25.3333333,13.9412489 25.1094757,13.7173913 24.8333333,13.7173913 L21,13.7173913 Z" id="Rectangle-5-Copy-5" stroke="#979797"></path>
                    <path d="M21,28.5869565 C20.7238576,28.5869565 20.5,28.8108141 20.5,29.0869565 L20.5,32.8695652 C20.5,33.1457076 20.7238576,33.3695652 21,33.3695652 L24.8333333,33.3695652 C25.1094757,33.3695652 25.3333333,33.1457076 25.3333333,32.8695652 L25.3333333,29.0869565 C25.3333333,28.8108141 25.1094757,28.5869565 24.8333333,28.5869565 L21,28.5869565 Z" id="Rectangle-5-Copy-8" stroke="#979797"></path>
                </g>
            </g>
        </g>
    </g>
</svg>