<?xml version="1.0" encoding="UTF-8"?>
<svg width="40px" height="29px" viewBox="0 0 40 29" version="1.1" xmlns="http://www.w3.org/2000/svg" xmlns:xlink="http://www.w3.org/1999/xlink">
    <!-- Generator: sketchtool 52.1 (67048) - http://www.bohemiancoding.com/sketch -->
    <title>147F4794-5994-4C4D-81CE-BEEACF552251</title>
    <desc>Created with sketchtool.</desc>
    <g id="Design" stroke="none" stroke-width="1" fill="none" fill-rule="evenodd">
        <g id="05_3_desktop_product_all" transform="translate(-997.000000, -3207.000000)">
            <g id="Group-7" transform="translate(907.000000, 3177.000000)">
                <g id="icon_cheque-copy-2" transform="translate(90.000000, 28.000000)">
                    <path d="M3,7.11921405 C1.61928813,7.11921405 0.5,8.23850218 0.5,9.61921405 L0.5,27.9289331 C0.5,29.309645 1.61928813,30.4289331 3,30.4289331 L32.8202699,30.4289331 C34.2009818,30.4289331 35.3202699,29.309645 35.3202699,27.9289331 L35.3202699,9.61921405 C35.3202699,8.23850218 34.2009818,7.11921405 32.8202699,7.11921405 L3,7.11921405 Z" id="Rectangle" stroke="#767C87"></path>
                    <g id="icon_pass" transform="translate(21.777778, 0.000000)">
                        <g transform="translate(0.833333, 0.833333)">
                            <path d="M17.0338645,9.08911539 C17.0338645,13.4764596 13.4770689,17.0338645 9.08972474,17.0338645 C4.70238054,17.0338645 1.14497562,13.4764596 1.14497562,9.08911539 C1.14497562,4.70177119 4.70238054,1.14497562 9.08972474,1.14497562 C13.4770689,1.14497562 17.0338645,4.70177119 17.0338645,9.08911539 Z" id="Stroke-64" fill="#B71651" transform="translate(9.089420, 9.089420) rotate(-9.000000) translate(-9.089420, -9.089420) "></path>
                            <polyline id="Path-18" stroke="#FFFFFF" points="4.88888889 9.37972005 7.60845269 11.6600477 12.6954753 6.11111111"></polyline>
                        </g>
                    </g>
                    <path d="M4.73097904,12.0213738 L16.8963537,12.0213738" id="Path-14" stroke="#767C87"></path>
                    <path d="M4.73097904,21.4751535 L19.5997703,21.4751535" id="Path-14-Copy-2" stroke="#767C87"></path>
                    <path d="M4.73097904,24.8515033 L27.0341659,24.8515033" id="Path-14-Copy-3" stroke="#767C87"></path>
                </g>
            </g>
        </g>
    </g>
</svg>