<?xml version="1.0" encoding="utf-8"?>
<!-- Generator: Adobe Illustrator 22.1.0, SVG Export Plug-In . SVG Version: 6.00 Build 0)  -->
<svg version="1.1" id="Layer_1" xmlns="http://www.w3.org/2000/svg" xmlns:xlink="http://www.w3.org/1999/xlink" x="0px" y="0px"
	 viewBox="0 0 100 100" style="enable-background:new 0 0 100 100;" xml:space="preserve">
<style type="text/css">
	.st0{fill:none;stroke:#767C87;}
	.st1{fill:none;}
	.st2{fill:#E55792;stroke:#767C87;}
	.st3{fill:none;stroke:#767C87;stroke-linecap:round;stroke-linejoin:round;}
</style>
<title>icon_assets</title>
<desc>Created with Sketch.</desc>
<g id="icon_assets">
	<g>
		<path id="Stroke-1" class="st0" d="M17.4,61H13c-1.7,0-3-1.3-3-3v-4.3c0,0,0-8.7,7.5-8.7H88c1.7,0,3,1.3,3,3v9.9c0,1.7-1.3,3-3,3
			L17.4,61z"/>
		<path id="frame" class="st1" d="M0,0h100v100H0V0z"/>
		<path id="Stroke-3" class="st0" d="M29,45l18.2-9.2c2.4-1.2,5-1.8,7.6-1.8h10.5c3,0,6,0.8,8.5,2.3l15.6,9.1"/>
		<path id="Stroke-5" class="st0" d="M50,34.9V45"/>
		<path id="Stroke-7" class="st0" d="M69.1,34.7L74,45"/>
		<path id="Stroke-9" class="st0" d="M10,52c0,0,5.7-1.2,7-7"/>
		<path id="Stroke-11" class="st0" d="M86,45v4.2c0,0,0.3,2.8,5,2.8"/>
		<path id="Stroke-13" class="st2" d="M32,60.5c0,3.6-2.9,6.5-6.5,6.5S19,64.1,19,60.5c0-3.6,2.9-6.5,6.5-6.5S32,56.9,32,60.5z"/>
		<path id="Stroke-15" class="st2" d="M81,60.5c0,3.6-2.9,6.5-6.5,6.5c-3.6,0-6.5-2.9-6.5-6.5c0-3.6,2.9-6.5,6.5-6.5
			C78.1,54,81,56.9,81,60.5z"/>
		<path id="Stroke-17" class="st3" d="M43,52h15"/>
	</g>
</g>
</svg>
