<?xml version="1.0" encoding="UTF-8"?>
<svg width="59px" height="43px" viewBox="0 0 59 43" version="1.1" xmlns="http://www.w3.org/2000/svg" xmlns:xlink="http://www.w3.org/1999/xlink">
    <!-- Generator: Sketch 50.2 (55047) - http://www.bohemiancoding.com/sketch -->
    <title>icon_id</title>
    <desc>Created with Sketch.</desc>
    <defs></defs>
    <g id="styleguide" stroke="none" stroke-width="1" fill="none" fill-rule="evenodd">
        <g id="style_icons" transform="translate(-688.000000, -714.000000)">
            <g id="icon_id" transform="translate(688.000000, 714.000000)">
                <rect id="Rectangle-2-Copy" stroke="#767C87" x="0.5" y="0.5" width="58" height="42" rx="5"></rect>
                <path d="M43.9367018,24 L43.9980819,24 L44.0594619,24 C45.1834845,23.9769408 46.0926768,23.5018755 46.7640213,22.5933897 C48.2409792,20.5918524 47.9954589,17.1606457 47.9686052,16.8332052 C47.8726988,14.3750961 46.9059243,13.1990776 46.1080218,12.6502229 C45.5134024,12.2398155 44.8190403,12.0184473 44.0441169,12 L44.0172631,12 L43.9789006,12 C43.5530764,12 42.7167729,12.0830131 41.9149957,12.6318217 C41.1093823,13.1805842 40.1273012,14.3566026 40.0313948,16.8332052 C40.0045411,17.1606457 39.7590208,20.5918524 41.2359787,22.5933897 C41.903487,23.5018755 42.8126793,23.9769408 43.9367018,24 Z" id="Stroke-1-Copy" fill="#E55792"></path>
                <path d="M40.3019146,22 C40.2824383,22.0135624 38.4662715,23.1889746 36.2605783,23.7088685 C34.0987068,24.3960325 34.0354088,26.4891704 34.0061943,27.3797712 C34.0061943,27.4204133 34.0061943,27.4565798 34.0013252,27.4927916 C33.9964561,27.7414364 33.991587,28.9484491 34.2496483,29.5542837 C34.2983391,29.6717797 34.3859825,29.7712377 34.5028404,29.8390499 C34.6489128,29.9294662 38.1497813,32 44.0072844,32 C49.8647875,32 53.365656,29.9249906 53.5117284,29.8390499 C53.6237172,29.7712377 53.7162298,29.6717797 53.7649205,29.5542837 C54.0083745,28.9530152 54.0035055,27.7459573 53.9986364,27.5108296 C53.9986364,27.4611458 53.9937673,27.4249793 53.9937673,27.384292 C53.9645528,26.4891704 53.9012548,24.3960325 51.7880741,23.7269065 C49.5434283,23.1934502 46.6064122,22.0180381 46.5869359,22.0045208" id="Stroke-3-Copy" fill="#E55792"></path>
                <circle id="Oval-3-Copy-3" fill="#E55792" cx="11" cy="15" r="2"></circle>
                <circle id="Oval-3-Copy-4" fill="#E55792" cx="18.5" cy="15" r="2"></circle>
                <circle id="Oval-3-Copy-5" fill="#E55792" cx="26" cy="15" r="2"></circle>
                <path d="M9,22.5 L29,22.5" id="Path-4-Copy-3" stroke="#767C87" stroke-linecap="round"></path>
                <path d="M9,26.5 L29,26.5" id="Path-4-Copy-4" stroke="#767C87" stroke-linecap="round"></path>
                <path d="M9,30.5 L29,30.5" id="Path-4-Copy-5" stroke="#767C87" stroke-linecap="round"></path>
            </g>
        </g>
    </g>
</svg>