<?xml version="1.0" encoding="utf-8"?>
<!-- Generator: Adobe Illustrator 22.1.0, SVG Export Plug-In . SVG Version: 6.00 Build 0)  -->
<svg version="1.1" id="Layer_1" xmlns="http://www.w3.org/2000/svg" xmlns:xlink="http://www.w3.org/1999/xlink" x="0px" y="0px"
	 viewBox="0 0 100 100" style="enable-background:new 0 0 100 100;" xml:space="preserve">
<style type="text/css">
	.st0{fill:none;}
	.st1{fill:none;stroke:#767C87;}
	.st2{fill:#697489;}
</style>
<title>icon_income</title>
<desc>Created with Sketch.</desc>
<g id="styleguide">
	<g id="style_icons" transform="translate(-134.000000, -411.000000)">
		<g id="icon_income" transform="translate(110.000000, 386.000000)">
			<path id="frame" class="st0" d="M22,22h100v100H22V22z"/>
			<g id="icon_id-copy" transform="translate(24.000000, 25.000000)">
				<path id="Rectangle-2_2_" class="st1" d="M72.5,49V38.7c0-3.4-2.8-6.2-6.2-6.2H28.7c-3.4,0-6.2,2.8-6.2,6.2v22.7
					c0,3.4,2.8,6.2,6.2,6.2h18.5"/>
				<path id="Rectangle-24" class="st2" d="M37.1,32H32v-3.3c0-3.7,3.1-6.7,6.8-6.7h21.3c3.8,0,6.9,3,6.9,6.7V32h-5.1v-3.3
					c0-0.9-0.8-1.7-1.7-1.7H38.8c-0.9,0-1.7,0.7-1.7,1.7C37.1,28.7,37.1,32,37.1,32z"/>
			</g>
			<path id="Path-13" class="st1" d="M50,64.1V68c0,2.2,1.8,4,4,4h1.4 M57.9,72c11.7,0,20.6,0,26.4,0 M86.8,72c0.6,0,1.7,0,3.2,0
				c2.2,0,4-1.8,4-4v-4"/>
			<path id="Rectangle-3" class="st1" d="M56.5,68.5L56.5,68.5c0.6,0,1,0.4,1,1v4c0,0.6-0.4,1-1,1l0,0c-0.6,0-1-0.4-1-1v-4
				C55.5,68.9,55.9,68.5,56.5,68.5z"/>
			<path id="Rectangle-3-Copy" class="st1" d="M85.5,68.5L85.5,68.5c0.6,0,1,0.4,1,1v4c0,0.6-0.4,1-1,1l0,0c-0.6,0-1-0.4-1-1v-4
				C84.5,68.9,84.9,68.5,85.5,68.5z"/>
			<g id="icon_money-copy-3" transform="translate(54.000000, 55.000000)">
				<path id="Combined-Shape" class="st2" d="M35.5,35.5c0.8,0,1.4,0.7,1.4,1.6c0,0.9-0.6,1.6-1.4,1.6h-2.4c-0.4,0-0.7,0.3-0.7,0.7
					s0.3,0.7,0.7,0.7h2.4c1.5,0,2.7-1.3,2.7-2.9c0-1.6-1.2-2.9-2.7-2.9l0,0h-0.3c-0.8,0-1.4-0.7-1.4-1.6c0-0.9,0.6-1.7,1.4-1.7h2.4
					c0.4,0,0.7-0.3,0.7-0.7s-0.3-0.7-0.7-0.7h-2.4c-1.5,0-2.7,1.3-2.7,2.9s1.2,2.9,2.7,2.9L35.5,35.5L35.5,35.5z M48,35
					c0,7.2-5.8,13-13,13s-13-5.8-13-13s5.8-13,13-13S48,27.8,48,35z M36.1,28.6v-0.9c0-0.4-0.3-0.7-0.7-0.7c-0.4,0-0.7,0.3-0.7,0.7
					v0.9c0,0.4,0.3,0.7,0.7,0.7C35.8,29.2,36.1,29,36.1,28.6z M36.1,41.9V41c0-0.4-0.3-0.7-0.7-0.7c-0.4,0-0.7,0.3-0.7,0.7v0.9
					c0,0.4,0.3,0.7,0.7,0.7C35.8,42.5,36.1,42.3,36.1,41.9z"/>
			</g>
		</g>
	</g>
</g>
</svg>
