<?xml version="1.0" encoding="UTF-8"?>
<svg width="58px" height="58px" viewBox="0 0 58 58" version="1.1" xmlns="http://www.w3.org/2000/svg" xmlns:xlink="http://www.w3.org/1999/xlink">
    <!-- Generator: Sketch 50.2 (55047) - http://www.bohemiancoding.com/sketch -->
    <title>icon_info</title>
    <desc>Created with Sketch.</desc>
    <defs></defs>
    <g id="styleguide" stroke="none" stroke-width="1" fill="none" fill-rule="evenodd">
        <g id="style_icons" transform="translate(-275.000000, -846.000000)">
            <g id="icon_info" transform="translate(276.000000, 847.000000)">
                <path d="M56,28 C56,43.4649159 43.4649159,56 28,56 C12.5350841,56 0,43.4649159 0,28 C0,12.5350841 12.5350841,0 28,0 C43.4649159,0 56,12.5350841 56,28 Z" id="Stroke-1" stroke="#767C87"></path>
                <path d="M26.7695312,31.3671875 L26.7695312,30.6152344 C26.7695312,29.5305935 26.9427066,28.6487664 27.2890625,27.9697266 C27.6354184,27.2906867 28.2460894,26.5865922 29.1210938,25.8574219 C30.1145883,25.018876 30.7662745,24.4173195 31.0761719,24.0527344 C31.3860693,23.6881492 31.6048171,23.3235695 31.7324219,22.9589844 C31.8600267,22.5943992 31.9238281,22.1705753 31.9238281,21.6875 C31.9238281,20.7851517 31.6321644,20.0924503 31.0488281,19.609375 C30.4654919,19.1262997 29.6269586,18.8847656 28.5332031,18.8847656 C27.8040328,18.8847656 27.0908238,18.9759105 26.3935547,19.1582031 C25.6962856,19.3404957 24.9147179,19.6412739 24.0488281,20.0605469 L23.1875,18.1054688 C24.9192795,17.1848912 26.7558497,16.7246094 28.6972656,16.7246094 C30.4290451,16.7246094 31.7916617,17.1552691 32.7851562,18.0166016 C33.7786508,18.877934 34.2753906,20.0833256 34.2753906,21.6328125 C34.2753906,22.307295 34.1842457,22.9042943 34.0019531,23.4238281 C33.8196605,23.943362 33.5439472,24.4355446 33.1748047,24.9003906 C32.8056622,25.3652367 32.069667,26.0579381 30.9667969,26.9785156 C30.0644486,27.7532591 29.4651708,28.3935522 29.1689453,28.8994141 C28.8727199,29.405276 28.7246094,30.0729125 28.7246094,30.9023438 L28.7246094,31.3671875 L26.7695312,31.3671875 Z M26.1269531,35.4824219 C26.1269531,34.2337177 26.7057234,33.609375 27.8632812,33.609375 C28.3919297,33.609375 28.8089177,33.7666 29.1142578,34.0810547 C29.4195979,34.3955094 29.5722656,34.8626271 29.5722656,35.4824219 C29.5722656,36.093102 29.4173193,36.564777 29.1074219,36.8974609 C28.7975245,37.2301449 28.3828151,37.3964844 27.8632812,37.3964844 C27.352862,37.3964844 26.935874,37.2460953 26.6123047,36.9453125 C26.2887354,36.6445297 26.1269531,36.1569044 26.1269531,35.4824219 Z" id="?" fill="#5795FF"></path>
            </g>
        </g>
    </g>
</svg>