<?xml version="1.0" encoding="utf-8"?>
<!-- Generator: Adobe Illustrator 22.1.0, SVG Export Plug-In . SVG Version: 6.00 Build 0)  -->
<svg version="1.1" id="Layer_1" xmlns="http://www.w3.org/2000/svg" xmlns:xlink="http://www.w3.org/1999/xlink" x="0px" y="0px"
	 viewBox="0 0 35 50" style="enable-background:new 0 0 35 50;" xml:space="preserve">
<style type="text/css">
	.st0{fill:none;stroke:#767C87;}
	.st1{fill:#76C5BF;}
</style>
<title>icon_mobile_green</title>
<desc>Created with Sketch.</desc>
<path id="Stroke-1-Copy-2" class="st0" d="M29.4,50H5.5c-3,0-5.5-2.1-5.5-4.8V4.8C0,2.1,2.5,0,5.5,0h23.9C32.5,0,35,2.1,35,4.8v40.5
	C35,47.9,32.5,50,29.4,50z"/>
<path id="Stroke-3-Copy-2" class="st1" d="M20,43c0,1.7-1.3,3-3,3s-3-1.3-3-3s1.3-3,3-3S20,41.3,20,43z"/>
<path class="st1" d="M27.8,36H6.7c-1.6,0-3-1.4-3-3V7c0-1.7,1.4-3,3-3h21.2c1.6,0,3,1.3,3,3V33C30.8,34.6,29.5,36,27.8,36z"/>
</svg>
