<?xml version="1.0" encoding="UTF-8"?>
<svg width="66px" height="57px" viewBox="0 0 66 57" version="1.1" xmlns="http://www.w3.org/2000/svg" xmlns:xlink="http://www.w3.org/1999/xlink">
    <!-- Generator: Sketch 50.2 (55047) - http://www.bohemiancoding.com/sketch -->
    <title>icon_ring</title>
    <desc>Created with Sketch.</desc>
    <defs></defs>
    <g id="icon_ring" stroke="none" stroke-width="1" fill="none" fill-rule="evenodd">
        <g transform="translate(2.000000, 2.000000)">
            <g id="Group-4" transform="translate(26.000000, 11.000000)">
                <path d="M6.296875,22.2857143 C6.296875,22.2857143 12.390625,28.255102 12.390625,32.8316327 C12.390625,40.6443673 0,40.7764898 0,32.8316327 C0,28.255102 6.09375,22.2857143 6.09375,22.2857143 L6.296875,22.2857143 Z" id="Stroke-11" stroke="#767C87" fill="#76C5BF"></path>
                <path d="M5.6875,0.106345526 C6.807125,-0.108552433 8.347625,-0.0822871269 9.0146875,0.998570016 C9.920625,2.4670394 8.844875,4.52130471 7.1475625,4.7202843 C5.8946875,4.86673328 5.733,5.3832843 5.7695625,6.74191695 C5.7695625,6.74191695 5.8231875,14.5466925 5.8686875,16.6304068" id="Stroke-1" stroke="#767C87"></path>
                <path d="M8.9375,19.5 C8.9375,21.0385102 7.6643125,22.2857143 6.09375,22.2857143 C4.5231875,22.2857143 3.25,21.0385102 3.25,19.5 C3.25,17.9614898 4.5231875,16.7142857 6.09375,16.7142857 C7.6643125,16.7142857 8.9375,17.9614898 8.9375,19.5" id="Fill-3"></path>
                <path d="M8.9375,19.5 C8.9375,21.0385102 7.6643125,22.2857143 6.09375,22.2857143 C4.5231875,22.2857143 3.25,21.0385102 3.25,19.5 C3.25,17.9614898 4.5231875,16.7142857 6.09375,16.7142857 C7.6643125,16.7142857 8.9375,17.9614898 8.9375,19.5 Z" id="Stroke-5" stroke="#767C87" fill="#FFFFFF"></path>
                <path d="M8.9375,32.2346939 C8.9375,33.7732041 7.6643125,35.0204082 6.09375,35.0204082 C4.5231875,35.0204082 3.25,33.7732041 3.25,32.2346939 C3.25,30.6961837 4.5231875,29.4489796 6.09375,29.4489796 C7.6643125,29.4489796 8.9375,30.6961837 8.9375,32.2346939" id="Fill-7"></path>
                <path d="M8.9375,32.2346939 C8.9375,33.7732041 7.6643125,35.0204082 6.09375,35.0204082 C4.5231875,35.0204082 3.25,33.7732041 3.25,32.2346939 C3.25,30.6961837 4.5231875,29.4489796 6.09375,29.4489796 C7.6643125,29.4489796 8.9375,30.6961837 8.9375,32.2346939 Z" id="Stroke-9" stroke="#767C87" fill="#FFFFFF"></path>
            </g>
            <g id="Group-4-Copy" transform="translate(41.000000, 11.000000)">
                <path d="M6.296875,22.2857143 C6.296875,22.2857143 12.390625,28.255102 12.390625,32.8316327 C12.390625,40.6443673 0,40.7764898 0,32.8316327 C0,28.255102 6.09375,22.2857143 6.09375,22.2857143 L6.296875,22.2857143 Z" id="Stroke-11" stroke="#767C87" fill="#76C5BF"></path>
                <path d="M5.6875,0.106345526 C6.807125,-0.108552433 8.347625,-0.0822871269 9.0146875,0.998570016 C9.920625,2.4670394 8.844875,4.52130471 7.1475625,4.7202843 C5.8946875,4.86673328 5.733,5.3832843 5.7695625,6.74191695 C5.7695625,6.74191695 5.8231875,14.5466925 5.8686875,16.6304068" id="Stroke-1" stroke="#767C87"></path>
                <path d="M8.9375,19.5 C8.9375,21.0385102 7.6643125,22.2857143 6.09375,22.2857143 C4.5231875,22.2857143 3.25,21.0385102 3.25,19.5 C3.25,17.9614898 4.5231875,16.7142857 6.09375,16.7142857 C7.6643125,16.7142857 8.9375,17.9614898 8.9375,19.5" id="Fill-3"></path>
                <path d="M8.9375,19.5 C8.9375,21.0385102 7.6643125,22.2857143 6.09375,22.2857143 C4.5231875,22.2857143 3.25,21.0385102 3.25,19.5 C3.25,17.9614898 4.5231875,16.7142857 6.09375,16.7142857 C7.6643125,16.7142857 8.9375,17.9614898 8.9375,19.5 Z" id="Stroke-5" stroke="#767C87" fill="#FFFFFF"></path>
                <path d="M8.9375,32.2346939 C8.9375,33.7732041 7.6643125,35.0204082 6.09375,35.0204082 C4.5231875,35.0204082 3.25,33.7732041 3.25,32.2346939 C3.25,30.6961837 4.5231875,29.4489796 6.09375,29.4489796 C7.6643125,29.4489796 8.9375,30.6961837 8.9375,32.2346939" id="Fill-7"></path>
                <path d="M8.9375,32.2346939 C8.9375,33.7732041 7.6643125,35.0204082 6.09375,35.0204082 C4.5231875,35.0204082 3.25,33.7732041 3.25,32.2346939 C3.25,30.6961837 4.5231875,29.4489796 6.09375,29.4489796 C7.6643125,29.4489796 8.9375,30.6961837 8.9375,32.2346939 Z" id="Stroke-9" stroke="#767C87" fill="#FFFFFF"></path>
            </g>
            <g id="icon_fail">
                <g id="Group-Copy" fill="#E55792">
                    <path d="M18.5823976,9.91539861 C18.5823976,14.7015923 14.702257,18.5823976 9.91606336,18.5823976 C5.12986968,18.5823976 1.24906432,14.7015923 1.24906432,9.91539861 C1.24906432,5.12920494 5.12986968,1.24906432 9.91606336,1.24906432 C14.702257,1.24906432 18.5823976,5.12920494 18.5823976,9.91539861 Z" id="Stroke-64" transform="translate(9.915731, 9.915731) rotate(-9.000000) translate(-9.915731, -9.915731) "></path>
                </g>
                <g id="Group-3" transform="translate(10.044108, 9.977104) rotate(-315.000000) translate(-10.044108, -9.977104) translate(4.710774, 5.310438)" stroke="#FFFFFF">
                    <path d="M9.44729905,4.42241147 L1.09501621,4.42241147" id="Path-20"></path>
                    <path d="M5.27115763,8.59855288 L5.27115763,0.24627005" id="Path-20"></path>
                </g>
            </g>
        </g>
        <path d="M0,0 L66,0 L66,57 L0,57 L0,0 Z" id="frame"></path>
    </g>
</svg>