<?xml version="1.0" encoding="UTF-8"?>
<svg width="66px" height="57px" viewBox="0 0 66 57" version="1.1" xmlns="http://www.w3.org/2000/svg" xmlns:xlink="http://www.w3.org/1999/xlink">
    <!-- Generator: Sketch 50.2 (55047) - http://www.bohemiancoding.com/sketch -->
    <title>icon_cap</title>
    <desc>Created with Sketch.</desc>
    <defs></defs>
    <g id="icon_cap" stroke="none" stroke-width="1" fill="none" fill-rule="evenodd">
        <g transform="translate(2.000000, 3.000000)">
            <g id="Group-3" transform="translate(14.000000, 22.000000)" stroke="#767C87">
                <path d="M24,19.4816771 C24,19.4816771 32.0106463,25.3507017 38.1636006,24.9834571 C44.316555,24.616763 50.8022768,20.5787233 46.7282457,19.7528357 L34.2624632,17" id="Stroke-3" fill="#BD7A7A"></path>
                <path d="M33.9980077,17.4262309 C33.9980077,17.4262309 34.5644335,1.15475035 16.5955838,2.03442447 L16.4436633,2.03442447 C-1.91930616,2.23367115 0.0624559014,20 0.0624559014,20 L24.209569,20 L33.9980077,17.4262309 Z" id="Stroke-1"></path>
                <path d="M31.7774962,8 C31.7774962,8 29.4759404,9.64697162 30.1107374,12.1176761 C30.7455344,14.5883806 34,15 34,15" id="Stroke-5"></path>
                <path d="M15,2 C15,2 7.95745676,5.09841322 7,20" id="Stroke-7"></path>
                <path d="M19,2 C19,2 24.4910756,6.62373049 23.9643981,20" id="Stroke-9"></path>
                <path d="M15,2 C15,0.895870102 15.8953502,0 16.9997692,0 C18.1046498,0 19,0.895870102 19,2" id="Stroke-11"></path>
            </g>
            <g id="icon_fail">
                <g id="Group-Copy" fill="#E55792">
                    <path d="M18.5823976,9.91539861 C18.5823976,14.7015923 14.702257,18.5823976 9.91606336,18.5823976 C5.12986968,18.5823976 1.24906432,14.7015923 1.24906432,9.91539861 C1.24906432,5.12920494 5.12986968,1.24906432 9.91606336,1.24906432 C14.702257,1.24906432 18.5823976,5.12920494 18.5823976,9.91539861 Z" id="Stroke-64" transform="translate(9.915731, 9.915731) rotate(-9.000000) translate(-9.915731, -9.915731) "></path>
                </g>
                <g id="Group-3" transform="translate(10.044108, 9.977104) rotate(-315.000000) translate(-10.044108, -9.977104) translate(4.710774, 5.310438)" stroke="#FFFFFF">
                    <path d="M9.44729905,4.42241147 L1.09501621,4.42241147" id="Path-20"></path>
                    <path d="M5.27115763,8.59855288 L5.27115763,0.24627005" id="Path-20"></path>
                </g>
            </g>
        </g>
        <path d="M0,0 L66,0 L66,57 L0,57 L0,0 Z" id="frame"></path>
    </g>
</svg>