<?xml version="1.0" encoding="UTF-8"?>
<svg width="100px" height="100px" viewBox="0 0 100 100" version="1.1" xmlns="http://www.w3.org/2000/svg" xmlns:xlink="http://www.w3.org/1999/xlink">
    <!-- Generator: Sketch 50.2 (55047) - http://www.bohemiancoding.com/sketch -->
    <title>icon_others@1x</title>
    <desc>Created with Sketch.</desc>
    <defs></defs>
    <g id="icon_others" stroke="none" stroke-width="1" fill="none" fill-rule="evenodd">
        <g>
            <g id="icon_receipt" transform="translate(24.000000, 27.000000)" stroke="#767C87">
                <path d="M30.8378765,0 L23.1621235,0 C10.4223799,0 0,9.79733553 0,21.7730592 C0,33.7487829 10.4223799,43.5476645 23.1621235,43.5476645 L30.8378765,43.5476645 C33.1239911,43.5476645 35.3278713,43.2214474 37.4182682,42.6339474 L42.0360131,45.8889804 C42.4874216,46.2071767 43.1113095,46.0991869 43.4295058,45.6477785 C43.5483594,45.4791671 43.6121585,45.2779242 43.6121585,45.0716331 L43.6121585,39.9036184 C49.8586788,35.9921053 54,29.3177961 54,21.7730592 C54,9.79733553 43.5776201,0 30.8378765,0 Z" id="Stroke-5"></path>
            </g>
            <path d="M0,0 L100,0 L100,100 L0,100 L0,0 Z" id="Rectangle-6-Copy-2"></path>
            <path d="M49.7695312,52.3671875 L49.7695312,51.6152344 C49.7695312,50.5305935 49.9427066,49.6487664 50.2890625,48.9697266 C50.6354184,48.2906867 51.2460894,47.5865922 52.1210938,46.8574219 C53.1145883,46.018876 53.7662745,45.4173195 54.0761719,45.0527344 C54.3860693,44.6881492 54.6048171,44.3235695 54.7324219,43.9589844 C54.8600267,43.5943992 54.9238281,43.1705753 54.9238281,42.6875 C54.9238281,41.7851517 54.6321644,41.0924503 54.0488281,40.609375 C53.4654919,40.1262997 52.6269586,39.8847656 51.5332031,39.8847656 C50.8040328,39.8847656 50.0908238,39.9759105 49.3935547,40.1582031 C48.6962856,40.3404957 47.9147179,40.6412739 47.0488281,41.0605469 L46.1875,39.1054688 C47.9192795,38.1848912 49.7558497,37.7246094 51.6972656,37.7246094 C53.4290451,37.7246094 54.7916617,38.1552691 55.7851562,39.0166016 C56.7786508,39.877934 57.2753906,41.0833256 57.2753906,42.6328125 C57.2753906,43.307295 57.1842457,43.9042943 57.0019531,44.4238281 C56.8196605,44.943362 56.5439472,45.4355446 56.1748047,45.9003906 C55.8056622,46.3652367 55.069667,47.0579381 53.9667969,47.9785156 C53.0644486,48.7532591 52.4651708,49.3935522 52.1689453,49.8994141 C51.8727199,50.405276 51.7246094,51.0729125 51.7246094,51.9023438 L51.7246094,52.3671875 L49.7695312,52.3671875 Z M49.1269531,56.4824219 C49.1269531,55.2337177 49.7057234,54.609375 50.8632812,54.609375 C51.3919297,54.609375 51.8089177,54.7666 52.1142578,55.0810547 C52.4195979,55.3955094 52.5722656,55.8626271 52.5722656,56.4824219 C52.5722656,57.093102 52.4173193,57.564777 52.1074219,57.8974609 C51.7975245,58.2301449 51.3828151,58.3964844 50.8632812,58.3964844 C50.352862,58.3964844 49.935874,58.2460953 49.6123047,57.9453125 C49.2887354,57.6445297 49.1269531,57.1569044 49.1269531,56.4824219 Z" id="?" fill="#767C87"></path>
        </g>
    </g>
</svg>