<?xml version="1.0" encoding="utf-8"?>
<!-- Generator: Adobe Illustrator 22.1.0, SVG Export Plug-In . SVG Version: 6.00 Build 0)  -->
<svg version="1.1" id="Layer_1" xmlns="http://www.w3.org/2000/svg" xmlns:xlink="http://www.w3.org/1999/xlink" x="0px" y="0px"
	 viewBox="0 0 100 100" style="enable-background:new 0 0 100 100;" xml:space="preserve">
<style type="text/css">
	.st0{fill:none;stroke:#767C87;}
	.st1{fill:none;}
	.st2{fill:#87B3FF;}
</style>
<title>icon_saving</title>
<desc>Created with Sketch.</desc>
<g id="styleguide">
	<g id="style_icons" transform="translate(-827.000000, -410.000000)">
		<g id="icon_saving" transform="translate(802.000000, 386.000000)">
			<g id="icon_money-copy-2" transform="translate(26.000000, 25.000000)">
				<path id="Stroke-1" class="st0" d="M75,49c0,14.4-11.6,26-26,26S23,63.4,23,49s11.6-26,26-26S75,34.6,75,49z"/>
			</g>
			<path id="frame-copy-3" class="st1" d="M23,23h100v100H23V23z"/>
			<g id="Group-14" transform="translate(47.000000, 36.000000)">
				<path id="Combined-Shape" class="st2" d="M29.3,39h-0.6c-2.9,0-5.2-2.5-5.2-5.5s2.3-5.5,5.2-5.5h4.5c0.7,0,1.3,0.6,1.3,1.3
					c0,0.7-0.6,1.3-1.3,1.3h-4.5c-1.4,0-2.6,1.3-2.6,2.9c0,1.6,1.2,3,2.6,3h0.6c0,0,0,0,0,0c2.8,0,5.1,2.5,5.1,5.5
					c0,3-2.3,5.5-5.2,5.5h-4.5c-0.7,0-1.3-0.6-1.3-1.3s0.6-1.3,1.3-1.3h4.5c1.4,0,2.6-1.3,2.6-3S30.7,39,29.3,39z M30.5,25.9
					c0,0.7-0.6,1.3-1.3,1.3s-1.3-0.6-1.3-1.3v-1.7c0-0.7,0.6-1.3,1.3-1.3s1.3,0.6,1.3,1.3V25.9z M30.5,51.2c0,0.7-0.6,1.3-1.3,1.3
					s-1.3-0.6-1.3-1.3v-1.7c0-0.7,0.6-1.3,1.3-1.3s1.3,0.6,1.3,1.3V51.2z"/>
			</g>
		</g>
	</g>
</g>
</svg>
