<?xml version="1.0" encoding="UTF-8"?>
<svg width="57px" height="56px" viewBox="0 0 57 56" version="1.1" xmlns="http://www.w3.org/2000/svg" xmlns:xlink="http://www.w3.org/1999/xlink">
    <!-- Generator: Sketch 50.2 (55047) - http://www.bohemiancoding.com/sketch -->
    <title>icon_18</title>
    <desc>Created with Sketch.</desc>
    <defs></defs>
    <g id="styleguide" stroke="none" stroke-width="1" fill="none" fill-rule="evenodd">
        <g id="style_icons" transform="translate(-827.000000, -709.000000)">
            <g id="icon_18" transform="translate(828.000000, 710.000000)">
                <path d="M42.510969,4.89721784 L37.1447375,9.31142879 C34.1571018,7.59426328 30.6932323,6.6122449 27,6.6122449 C15.7401538,6.6122449 6.6122449,15.7401538 6.6122449,27 C6.6122449,38.2598462 15.7401538,47.3877551 27,47.3877551 C38.2598462,47.3877551 47.3877551,38.2598462 47.3877551,27 C47.3877551,24.3953562 46.8993243,21.9047915 46.0090582,19.6149015 L52.0732014,16.9639508 C53.3161827,20.0664842 54,23.4533851 54,27 C54,41.9116882 41.9116882,54 27,54 C12.0883118,54 0,41.9116882 0,27 C0,12.0883118 12.0883118,0 27,0 C32.7726046,0 38.1220938,1.81157216 42.510969,4.89721784 Z" id="Oval-6" stroke="#767C87" fill-rule="nonzero"></path>
                <path d="M24.2939035,35.7547684 L19.4786169,35.7547684 L19.4786169,26.2275204 C19.4786169,25.7942758 19.4868061,25.3201661 19.5031847,24.8051771 C19.5195633,24.2901882 19.5359417,23.8201656 19.5523203,23.3950954 C19.3393984,23.6403282 19.142858,23.8528601 18.9626934,24.0326975 C18.7825287,24.212535 18.6105559,24.3760211 18.4467698,24.5231608 L16.4567789,26.1662125 L14,23.1498638 L20.0191083,18.2452316 L24.2939035,18.2452316 L24.2939035,35.7547684 Z M34.6369427,18 C36.3730751,18 37.7816142,18.3514951 38.8626024,19.0544959 C39.9435905,19.7574967 40.4840764,20.8283307 40.4840764,22.26703 C40.4840764,23.3133567 40.2015497,24.1798331 39.6364877,24.866485 C39.0714257,25.5531369 38.3466832,26.1089897 37.4622384,26.5340599 C38.0191111,26.8446882 38.5677862,27.2084448 39.1082803,27.6253406 C39.6487743,28.0422364 40.0991793,28.5326947 40.4595086,29.0967302 C40.819838,29.6607658 41,30.3269716 41,31.0953678 C41,32.0436015 40.7707029,32.8855549 40.3121019,33.6212534 C39.8535009,34.3569519 39.1533259,34.9373276 38.211556,35.3623978 C37.269786,35.7874681 36.0618818,36 34.5878071,36 C32.3603164,36 30.7388586,35.5504132 29.7233849,34.6512262 C28.7079112,33.7520391 28.200182,32.5831135 28.200182,31.1444142 C28.200182,29.9345989 28.5031817,28.9945538 29.1091902,28.3242507 C29.7151987,27.6539476 30.4767925,27.0817462 31.3939945,26.6076294 C30.6569572,26.1171638 30.0263902,25.5204395 29.5022748,24.8174387 C28.9781593,24.1144379 28.7161056,23.2561359 28.7161056,22.2425068 C28.7161056,21.310622 28.9699702,20.5299759 29.477707,19.900545 C29.9854438,19.271114 30.6815242,18.7970043 31.5659691,18.4782016 C32.4504139,18.159399 33.4740615,18 34.6369427,18 Z M34.6123749,21.4087193 C34.2192883,21.4087193 33.8794373,21.5231596 33.5928116,21.7520436 C33.306186,21.9809276 33.1628753,22.2915512 33.1628753,22.6839237 C33.1628753,23.0599474 33.2979968,23.4032682 33.5682439,23.7138965 C33.8384909,24.0245247 34.1701527,24.2861025 34.5632393,24.4986376 C34.9071901,24.3024513 35.2388519,24.0694836 35.5582348,23.7997275 C35.8776176,23.5299714 36.0373066,23.1580405 36.0373066,22.6839237 C36.0373066,22.2915512 35.893996,21.9809276 35.6073703,21.7520436 C35.3207447,21.5231596 34.9890829,21.4087193 34.6123749,21.4087193 Z M32.5486806,30.9482289 C32.5486806,31.4386946 32.724748,31.8351484 33.0768881,32.1376022 C33.4290281,32.440056 33.9162844,32.5912807 34.5386715,32.5912807 C35.2593303,32.5912807 35.791627,32.4523175 36.1355778,32.1743869 C36.4795286,31.8964564 36.6515014,31.5204383 36.6515014,31.0463215 C36.6515014,30.6866467 36.545042,30.3596745 36.3321201,30.0653951 C36.1191982,29.7711157 35.8694282,29.5177122 35.5828025,29.3051771 C35.2961769,29.092642 35.0545961,28.9291559 34.8580528,28.8147139 L34.5386715,28.6185286 C33.9981775,28.8964592 33.5313941,29.2234314 33.1383076,29.599455 C32.745221,29.9754787 32.5486806,30.4250655 32.5486806,30.9482289 Z" id="18" fill="#697489"></path>
                <path d="M49.7142857,7.76923077 L54.2857143,7.76923077 C55.2324881,7.76923077 56,8.54412255 56,9.5 C56,10.4558775 55.2324881,11.2307692 54.2857143,11.2307692 L49.7142857,11.2307692 L49.7142857,15.2692308 C49.7142857,16.2251082 48.9467739,17 48,17 C47.0532261,17 46.2857143,16.2251082 46.2857143,15.2692308 L46.2857143,11.2307692 L41.7142857,11.2307692 C40.7675119,11.2307692 40,10.4558775 40,9.5 C40,8.54412255 40.7675119,7.76923077 41.7142857,7.76923077 L46.2857143,7.76923077 L46.2857143,3.73076923 C46.2857143,2.77489178 47.0532261,2 48,2 C48.9467739,2 49.7142857,2.77489178 49.7142857,3.73076923 L49.7142857,7.76923077 Z" id="Combined-Shape" fill="#697489" fill-rule="nonzero"></path>
            </g>
        </g>
    </g>
</svg>