<?xml version="1.0" encoding="utf-8"?>
<!-- Generator: Adobe Illustrator 22.1.0, SVG Export Plug-In . SVG Version: 6.00 Build 0)  -->
<svg version="1.1" id="Layer_1" xmlns="http://www.w3.org/2000/svg" xmlns:xlink="http://www.w3.org/1999/xlink" x="0px" y="0px"
	 viewBox="0 0 100 100" style="enable-background:new 0 0 100 100;" xml:space="preserve">
<style type="text/css">
	.st0{fill:none;}
	.st1{fill:none;stroke:#767C87;}
	.st2{fill:#8399BF;stroke:#767C87;}
</style>
<title>icon_profit</title>
<desc>Created with Sketch.</desc>
<g id="styleguide">
	<g id="style_icons" transform="translate(-553.000000, -709.000000)">
		<g id="icon_profit" transform="translate(535.000000, 682.000000)">
			<path id="Rectangle-6-Copy-5" class="st0" d="M16.5,27.5h100v100h-100V27.5z"/>
			<path id="Path-8" class="st1" d="M34.5,98.5h67"/>
			<path id="Rectangle-7" class="st2" d="M45,98h11V73.5c0-1.9-1.6-3.5-3.5-3.5h-4c-1.9,0-3.5,1.6-3.5,3.5V98z"/>
			<path id="Rectangle-7_1_" class="st2" d="M62,98h11V65.5c0-1.9-1.6-3.5-3.5-3.5h-4c-1.9,0-3.5,1.6-3.5,3.5V98z"/>
			<path id="Rectangle-7-Copy" class="st2" d="M80,98h11V58.5c0-1.9-1.6-3.5-3.5-3.5h-4c-1.9,0-3.5,1.6-3.5,3.5V98z"/>
		</g>
	</g>
</g>
</svg>
