<?xml version="1.0" encoding="utf-8"?>
<!-- Generator: Adobe Illustrator 22.1.0, SVG Export Plug-In . SVG Version: 6.00 Build 0)  -->
<svg version="1.1" id="Layer_1" xmlns="http://www.w3.org/2000/svg" xmlns:xlink="http://www.w3.org/1999/xlink" x="0px" y="0px"
	 viewBox="0 0 100 100" style="enable-background:new 0 0 100 100;" xml:space="preserve">
<style type="text/css">
	.st0{fill:#76C5BF;}
	.st1{fill:none;stroke:#767C87;}
	.st2{fill:#76C5BF;stroke:#767C87;stroke-linecap:round;stroke-linejoin:round;}
	.st3{fill:none;}
</style>
<title>icon_payroll</title>
<desc>Created with Sketch.</desc>
<g id="styleguide">
	<g id="style_icons" transform="translate(-422.000000, -704.000000)">
		<g id="icon_payroll" transform="translate(400.000000, 682.000000)">
			<g id="icon_money-copy-4" transform="translate(43.000000, 37.000000)">
				<path id="Stroke-1" class="st0" d="M40,31.4c0,5-4,9-9,9s-9-4-9-9s4-9,9-9S40,26.5,40,31.4z"/>
			</g>
			<g id="icon_email-copy" transform="translate(23.000000, 42.000000)">
				<path id="Rectangle-3" class="st1" d="M80,23.4v27c0,2.8-2.2,5-5,5H27c-2.8,0-5-2.2-5-5v-28"/>
			</g>
			<polyline id="Path-11" class="st1" points="45,65.4 74.4,80.4 103,65.4 			"/>
			<path id="Path-12" class="st1" d="M53,69.4v-9c0-1.7,1.3-3,3-3h36c1.7,0,3,1.3,3,3v9"/>
			<path id="Path-14-Copy" class="st2" d="M45,64.4l5-4 M98,61.4l5,4"/>
			<path id="Path" class="st0" d="M58,55.4l12.6-9.6c1.8-1.4,4.3-1.4,6.1,0L89,55.4"/>
			<path id="Rectangle-6-Copy-4" class="st3" d="M22,22.4h100v100H22V22.4z"/>
		</g>
	</g>
</g>
</svg>
