<?xml version="1.0" encoding="UTF-8"?>
<svg width="43px" height="43px" viewBox="0 0 43 43" version="1.1" xmlns="http://www.w3.org/2000/svg" xmlns:xlink="http://www.w3.org/1999/xlink">
    <!-- Generator: Sketch 50.2 (55047) - http://www.bohemiancoding.com/sketch -->
    <title>icon_loading_person</title>
    <desc>Created with Sketch.</desc>
    <defs></defs>
    <g id="icon_loading_person" stroke="none" stroke-width="1" fill="none" fill-rule="evenodd">
        <g transform="translate(11.000000, 8.000000)" id="Group-2">
            <g>
                <rect id="Rectangle-2" stroke="#FFFFFF" fill="#767C87" x="0.5" y="0.5" width="21" height="24" rx="5"></rect>
                <path d="M11.1121919,13.3617021 L11.1451247,13.3617021 L11.1574745,13.3617021 L11.1780575,13.3617021 C11.7811388,13.3494775 12.2689554,13.0976255 12.6291576,12.6159991 C13.4216023,11.5549005 13.2898712,9.7358742 13.2754632,9.56228433 C13.2240057,8.25913782 12.705294,7.63568123 12.2771886,7.34471037 C11.9581524,7.12713625 11.5856005,7.00977971 11.1698243,7 L11.1554162,7 L11.147183,7 L11.1348332,7 C10.9063621,7 10.4576532,7.0440087 10.0274689,7.33495511 C9.59522628,7.62587707 9.06830199,8.24933365 9.01684454,9.56228433 C9.00243645,9.7358742 8.87070538,11.5549005 9.66315012,12.6159991 C10.021294,13.0976255 10.5091106,13.3494775 11.1121919,13.3617021 Z" id="Stroke-1" fill="#FFFFFF"></path>
                <path d="M9.30608135,13 C9.29586377,13.0073006 8.34307473,13.6400225 7.18593414,13.9198803 C7.17571656,13.9222895 7.16805338,13.9247474 7.1603902,13.9271809 C6.0517831,14.2897792 6.01857598,15.4165109 6.00324961,15.8959194 C6.00324961,15.9177969 6.00324961,15.9372653 6.00069522,15.956758 L6.00069522,15.9640586 C5.99814082,16.090603 5.99558643,16.7403354 6.13096932,17.0664548 C6.15651327,17.1297027 6.20249236,17.1832407 6.26379782,17.2197439 C6.34042965,17.2684148 8.1770391,18.3829787 11.2499754,18.3829787 C14.3229116,18.3829787 16.1595211,17.2660056 16.2361529,17.2197439 C16.294904,17.1832407 16.3434375,17.1297027 16.3689814,17.0664548 C16.4967011,16.7427933 16.4941467,16.0930366 16.4915923,15.9664679 L16.4915923,15.9591916 C16.4915923,15.9397232 16.4890379,15.9202548 16.4890379,15.8983529 C16.4737116,15.4165109 16.4405044,14.2897792 15.3318973,13.9295901 C15.3242342,13.9271809 15.3140166,13.9247474 15.3063534,13.9222895 C14.1543216,13.6424317 13.1964238,13.0097098 13.1862062,13.0024335" id="Stroke-3" stroke="#FFFFFF"></path>
            </g>
        </g>
        <rect id="Rectangle" x="0" y="0" width="43" height="43"></rect>
    </g>
</svg>