<?xml version="1.0" encoding="utf-8"?>
<!-- Generator: Adobe Illustrator 22.1.0, SVG Export Plug-In . SVG Version: 6.00 Build 0)  -->
<svg version="1.1" id="Layer_1" xmlns="http://www.w3.org/2000/svg" xmlns:xlink="http://www.w3.org/1999/xlink" x="0px" y="0px"
	 viewBox="0 0 24 24" style="enable-background:new 0 0 24 24;" xml:space="preserve">
<style type="text/css">
	.st0{fill:#3371DE;}
</style>
<title>icon_calendar</title>
<desc>Created with Sketch.</desc>
<path class="st0" d="M4.9,5.5H4c-1.6,0-2.9,1.3-2.9,2.9v10c0,1.6,1.3,2.9,2.9,2.9h16c1.6,0,2.9-1.3,2.9-2.9v-10
	c0-1.6-1.3-2.9-2.9-2.9h-0.7v1H20c1.1,0,1.9,0.8,1.9,1.9v10c0,1-0.9,1.9-1.9,1.9H4c-1.1,0-1.9-0.8-1.9-1.9v-10c0-1,0.9-1.9,1.9-1.9
	h0.9V5.5z"/>
<path class="st0" d="M5.5,12.5c-0.6,0-1,0.4-1,1s0.4,1,1,1h1c0.6,0,1-0.4,1-1s-0.4-1-1-1H5.5z M5.5,11.5h1c1.1,0,2,0.9,2,2
	s-0.9,2-2,2h-1c-1.1,0-2-0.9-2-2S4.4,11.5,5.5,11.5z M11.5,12.5c-0.6,0-1,0.4-1,1s0.4,1,1,1h1c0.6,0,1-0.4,1-1s-0.4-1-1-1H11.5z
	 M11.5,11.5h1c1.1,0,2,0.9,2,2s-0.9,2-2,2h-1c-1.1,0-2-0.9-2-2S10.4,11.5,11.5,11.5z M17.5,12.5c-0.6,0-1,0.4-1,1s0.4,1,1,1h1
	c0.6,0,1-0.4,1-1s-0.4-1-1-1H17.5z M17.5,11.5h1c1.1,0,2,0.9,2,2s-0.9,2-2,2h-1c-1.1,0-2-0.9-2-2S16.4,11.5,17.5,11.5z"/>
<path class="st0" d="M7,3.5C6.7,3.5,6.5,3.7,6.5,4v2c0,0.3,0.2,0.5,0.5,0.5S7.5,6.3,7.5,6V4C7.5,3.7,7.3,3.5,7,3.5z M8.5,4v2
	c0,0.8-0.7,1.5-1.5,1.5S5.5,6.8,5.5,6V4c0-0.8,0.7-1.5,1.5-1.5S8.5,3.2,8.5,4z M17,3.5c-0.3,0-0.5,0.2-0.5,0.5v2
	c0,0.3,0.2,0.5,0.5,0.5s0.5-0.2,0.5-0.5V4C17.5,3.7,17.3,3.5,17,3.5z M17,2.5c0.8,0,1.5,0.7,1.5,1.5v2c0,0.8-0.7,1.5-1.5,1.5
	S15.5,6.8,15.5,6V4C15.5,3.2,16.2,2.5,17,2.5z"/>
<path class="st0" d="M9.3,6.6v-1h5.5v1H9.3z"/>
</svg>
