<?xml version="1.0" encoding="utf-8"?>
<!-- Generator: Adobe Illustrator 22.1.0, SVG Export Plug-In . SVG Version: 6.00 Build 0)  -->
<svg version="1.1" id="Layer_1" xmlns="http://www.w3.org/2000/svg" xmlns:xlink="http://www.w3.org/1999/xlink" x="0px" y="0px"
	 viewBox="0 0 100 100" style="enable-background:new 0 0 100 100;" xml:space="preserve">
<style type="text/css">
	.st0{fill:#E55792;}
	.st1{fill:none;stroke:#767C87;}
	.st2{fill:none;}
</style>
<title>iocn_home</title>
<desc>Created with Sketch.</desc>
<g id="styleguide">
	<g id="style_icons" transform="translate(-276.000000, -705.000000)">
		<g id="iocn_home" transform="translate(253.000000, 682.000000)">
			<path id="Path-3" class="st0" d="M46,67.5h27V50.6c0-1.1-0.9-2-2-2c-0.4,0-0.9,0.1-1.2,0.4"/>
			<path id="Stroke-2" class="st1" d="M47,67.5l21.1-17c2.9-2.3,7-2.4,9.9-0.1l22,17.1"/>
			<path id="Rectangle-6-Copy-3" class="st2" d="M23,24.5h100v100H23V24.5z"/>
			<path id="Rectangle-7_1_" class="st1" d="M54.5,70.4v22.1c0,3,2.5,5.5,5.5,5.5h27c3,0,5.5-2.5,5.5-5.5V70"/>
			<path id="Rectangle-18" class="st0" d="M76,77.5h6c2.2,0,4,1.8,4,4v8c0,2.2-1.8,4-4,4h-6c-2.2,0-4-1.8-4-4v-8
				C72,79.3,73.8,77.5,76,77.5z"/>
		</g>
	</g>
</g>
</svg>
