<?xml version="1.0" encoding="UTF-8"?>
<svg width="43px" height="43px" viewBox="0 0 43 43" version="1.1" xmlns="http://www.w3.org/2000/svg" xmlns:xlink="http://www.w3.org/1999/xlink">
    <!-- Generator: Sketch 50.2 (55047) - http://www.bohemiancoding.com/sketch -->
    <title>icon_loading_verify</title>
    <desc>Created with Sketch.</desc>
    <defs></defs>
    <g id="icon_loading_verify" stroke="none" stroke-width="1" fill="none" fill-rule="evenodd">
        <g id="icon_id" transform="translate(9.000000, 7.000000)">
            <g id="Group-2">
                <rect id="Rectangle-2" stroke="#FFFFFF" fill="#767C87" x="0.5" y="0.5" width="30" height="22" rx="5"></rect>
                <path d="M9.26603808,12.7234043 L9.29897085,12.7234043 L9.31132064,12.7234043 L9.33190362,12.7234043 C9.93498494,12.7111796 10.4228016,12.4593276 10.7830037,11.9777013 C11.5754485,10.9166026 11.4437174,9.09757633 11.4293093,8.92398646 C11.3778519,7.62083994 10.8591402,6.99738335 10.4310348,6.7064125 C10.1119986,6.48883837 9.73944663,6.37148184 9.32367043,6.36170213 L9.30926234,6.36170213 L9.30102915,6.36170213 L9.28867936,6.36170213 C9.06020828,6.36170213 8.61149931,6.40571083 8.18131502,6.69665724 C7.74907244,6.98757919 7.22214814,7.61103578 7.17069069,8.92398646 C7.1562826,9.09757633 7.02455153,10.9166026 7.81699627,11.9777013 C8.17514013,12.4593276 8.66295676,12.7111796 9.26603808,12.7234043 Z" id="Stroke-1" fill="#FFFFFF"></path>
                <path d="M7.59838904,11.7446809 C7.58817147,11.7519815 6.63538242,12.3847034 5.47824183,12.6645611 C5.46802426,12.6669703 5.46036107,12.6694282 5.45269789,12.6718618 C4.34409079,13.0344601 4.31088367,14.1611917 4.2955573,14.6406002 C4.2955573,14.6624778 4.2955573,14.6819462 4.29300291,14.7014389 L4.29300291,14.7087395 C4.29044852,14.8352839 4.28789412,15.4850162 4.42327702,15.8111357 C4.44882096,15.8743835 4.49480005,15.9279216 4.55610552,15.9644247 C4.63273734,16.0130956 6.46934679,17.1276596 9.54228305,17.1276596 C12.6152193,17.1276596 14.4518288,16.0106864 14.5284606,15.9644247 C14.5872117,15.9279216 14.6357451,15.8743835 14.6612891,15.8111357 C14.7890088,15.4874741 14.7864544,14.8377174 14.7839,14.7111487 L14.7839,14.7038724 C14.7839,14.684404 14.7813456,14.6649357 14.7813456,14.6430338 C14.7660193,14.1611917 14.7328121,13.0344601 13.624205,12.674271 C13.6165418,12.6718618 13.6063243,12.6694282 13.5986611,12.6669703 C12.4466293,12.3871126 11.4887315,11.7543907 11.4785139,11.7471144" id="Stroke-3" stroke="#FFFFFF"></path>
                <ellipse id="Oval-3" fill="#FFFFFF" cx="17.8846154" cy="8.56382979" rx="1.19230769" ry="1.22340426"></ellipse>
                <ellipse id="Oval-3-Copy" fill="#FFFFFF" cx="21.9384615" cy="8.56382979" rx="1.19230769" ry="1.22340426"></ellipse>
                <ellipse id="Oval-3-Copy-2" fill="#FFFFFF" cx="25.9923077" cy="8.56382979" rx="1.19230769" ry="1.22340426"></ellipse>
                <path d="M16.6923077,11.9946809 L27.1846154,11.9946809" id="Path-4" stroke="#FFFFFF" stroke-linecap="round" stroke-linejoin="round"></path>
                <path d="M16.6923077,14.1968085 L27.0719194,14.1968085" id="Path-4-Copy" stroke="#FFFFFF" stroke-linecap="round" stroke-linejoin="round"></path>
                <path d="M16.6923077,16.3989362 L27.1846154,16.3989362" id="Path-4-Copy-2" stroke="#FFFFFF" stroke-linecap="round" stroke-linejoin="round"></path>
            </g>
        </g>
        <g id="icon_id" transform="translate(3.000000, 12.000000)">
            <g id="Group-2">
                <rect id="Rectangle-2" stroke="#FFFFFF" fill="#767C87" x="0.5" y="0.5" width="21" height="24" rx="5"></rect>
                <path d="M11.1121919,13.3617021 L11.1451247,13.3617021 L11.1574745,13.3617021 L11.1780575,13.3617021 C11.7811388,13.3494775 12.2689554,13.0976255 12.6291576,12.6159991 C13.4216023,11.5549005 13.2898712,9.7358742 13.2754632,9.56228433 C13.2240057,8.25913782 12.705294,7.63568123 12.2771886,7.34471037 C11.9581524,7.12713625 11.5856005,7.00977971 11.1698243,7 L11.1554162,7 L11.147183,7 L11.1348332,7 C10.9063621,7 10.4576532,7.0440087 10.0274689,7.33495511 C9.59522628,7.62587707 9.06830199,8.24933365 9.01684454,9.56228433 C9.00243645,9.7358742 8.87070538,11.5549005 9.66315012,12.6159991 C10.021294,13.0976255 10.5091106,13.3494775 11.1121919,13.3617021 Z" id="Stroke-1" fill="#FFFFFF"></path>
                <path d="M9.30608135,13 C9.29586377,13.0073006 8.34307473,13.6400225 7.18593414,13.9198803 C7.17571656,13.9222895 7.16805338,13.9247474 7.1603902,13.9271809 C6.0517831,14.2897792 6.01857598,15.4165109 6.00324961,15.8959194 C6.00324961,15.9177969 6.00324961,15.9372653 6.00069522,15.956758 L6.00069522,15.9640586 C5.99814082,16.090603 5.99558643,16.7403354 6.13096932,17.0664548 C6.15651327,17.1297027 6.20249236,17.1832407 6.26379782,17.2197439 C6.34042965,17.2684148 8.1770391,18.3829787 11.2499754,18.3829787 C14.3229116,18.3829787 16.1595211,17.2660056 16.2361529,17.2197439 C16.294904,17.1832407 16.3434375,17.1297027 16.3689814,17.0664548 C16.4967011,16.7427933 16.4941467,16.0930366 16.4915923,15.9664679 L16.4915923,15.9591916 C16.4915923,15.9397232 16.4890379,15.9202548 16.4890379,15.8983529 C16.4737116,15.4165109 16.4405044,14.2897792 15.3318973,13.9295901 C15.3242342,13.9271809 15.3140166,13.9247474 15.3063534,13.9222895 C14.1543216,13.6424317 13.1964238,13.0097098 13.1862062,13.0024335" id="Stroke-3" stroke="#FFFFFF"></path>
            </g>
        </g>
        <rect id="Rectangle" x="0" y="0" width="43" height="43"></rect>
    </g>
</svg>